<?xml version="1.0" encoding="UTF-8"?><svg xmlns="http://www.w3.org/2000/svg" viewBox="0 0 1001.81 1001.81"><defs><style>.d{fill:#fff;}.e{fill:#24bc2f;}</style></defs><g id="a"/><g id="b"><g id="c"><g><circle class="e" cx="500.9" cy="500.9" r="500.9"/><circle class="d" cx="500.9" cy="500.9" r="390.16"/></g><g><path class="e" d="M232.28,604.72c-4.36,0-7.74-1.2-10.13-3.59-2.4-2.39-3.92-4.79-4.58-7.19l-61.44-208.5c-.22-.87-.33-1.63-.33-2.29,0-1.96,.7-3.65,2.12-5.07,1.41-1.41,3.1-2.12,5.06-2.12h60.78c4.36,0,7.73,1.2,10.13,3.59,2.4,2.4,3.92,4.79,4.58,7.19l31.05,121.57,31.05-121.57c.65-2.4,2.18-4.79,4.58-7.19s5.77-3.59,10.13-3.59h60.78c1.96,0,3.65,.71,5.07,2.12,1.41,1.42,2.12,3.1,2.12,5.07,0,.65-.11,1.42-.33,2.29l-61.44,208.5c-.65,2.4-2.18,4.79-4.58,7.19-2.4,2.4-5.77,3.59-10.13,3.59h-74.51Z"/><path class="e" d="M375.42,604.72c-1.96,0-3.65-.71-5.07-2.12-1.42-1.42-2.12-3.1-2.12-5.07,0-.87,.11-1.63,.33-2.29l72.88-208.5c.65-2.4,2.18-4.79,4.58-7.19,2.39-2.4,5.77-3.59,10.13-3.59h70.92c4.36,0,7.73,1.2,10.13,3.59,2.39,2.4,3.92,4.79,4.58,7.19l72.88,208.5c.21,.65,.33,1.42,.33,2.29,0,1.96-.71,3.65-2.12,5.07s-3.1,2.12-5.07,2.12h-60.46c-4.14,0-7.14-.92-8.99-2.78-1.85-1.85-3.1-3.65-3.76-5.39l-7.84-21.57h-70.26l-7.84,21.57c-.65,1.75-1.85,3.54-3.59,5.39-1.75,1.85-4.79,2.78-9.15,2.78h-60.46Zm97.71-93.46h36.93l-18.63-60.78-18.3,60.78Z"/><path class="e" d="M641.76,604.72c-2.4,0-4.47-.87-6.21-2.61-1.75-1.74-2.61-3.81-2.61-6.21v-211.11c0-2.39,.87-4.46,2.61-6.21s3.81-2.61,6.21-2.61h96.73c31.37,0,55.88,7.08,73.53,21.24,17.65,14.16,26.47,33.55,26.47,58.17,0,14.6-3.32,27.29-9.97,38.07-6.65,10.78-15.09,19.44-25.33,25.98l40.2,74.51c.65,1.31,.98,2.51,.98,3.59,0,1.96-.71,3.65-2.12,5.07s-3.1,2.12-5.07,2.12h-66.99c-4.36,0-7.63-1.09-9.8-3.27-2.18-2.18-3.59-4.03-4.25-5.56l-28.1-62.42h-13.4v62.42c0,2.4-.87,4.47-2.61,6.21s-3.81,2.61-6.21,2.61h-64.05Zm72.88-133.33h23.86c5.01,0,8.77-1.69,11.27-5.07,2.5-3.38,3.76-7.24,3.76-11.6s-1.14-8.44-3.43-12.25c-2.29-3.81-6.16-5.72-11.6-5.72h-23.86v34.64Z"/></g></g></g></svg>